<?xml version="1.0" encoding="UTF-8"?>
<svg id="Layer_2" data-name="Layer 2" xmlns="http://www.w3.org/2000/svg" viewBox="0 0 245.08 244.32">
  <defs>
    <style>
      .cls-1 {
        fill: #e13d3a;
      }

      .cls-2 {
        fill: #e23d3a;
      }

      .cls-3 {
        fill: #e33935;
      }

      .cls-4 {
        fill: #e23b38;
      }

      .cls-5 {
        fill: #e13e3c;
      }

      .cls-6 {
        fill: #e23d3c;
      }

      .cls-7 {
        fill: #fefdfe;
      }

      .cls-8 {
        fill: #fdfdfd;
      }
    </style>
  </defs>
  <g id="Icon_Image" data-name="Icon Image">
    <g>
      <path class="cls-3" d="M29.78,201.82C-15.47,150.25-8.11,70.53,44.76,27.36,101.72-19.15,188.52-4.62,227.03,57.74c24.44,39.59,23.93,89.99-.72,129.32-44,70.2-142.14,76.72-196.52,14.76ZM54.07,41.22c-7.44,1.65-13.01,7.93-14.1,15.42.37,42-.98,84.03.25,125.99.13,4.38-.7,7.31,1.62,11.34,2,3.46,5.72,5.95,9.63,6.69,47.31.61,94.83.52,142.15.04,5.4-.94,9.67-4.99,11.12-10.24.62-37.73.48-75.66.1-113.4-.07-6.68.47-14.1.02-20.66-.52-7.43-7.25-14.14-14.52-15.24l-136.27.07Z"/>
      <path class="cls-3" d="M98.29,75v5.88c0,1.11,2.31,3,3.47,3.01l41.5-.03c4.4-.62,3.24-5.62,3.5-8.86h49.2v96.12c0,.39-2.04,2.76-2.52,2.76h-32.04v-43.56c-3.82-3.86-7.7-7.66-11.53-11.52-1.06-1.06-2.1-2.98-3.73-3.23l-53.98-.02c-1.39-.12-4.44,2.8-4.44,3.96v54.36h-35.64c-.09,0-1.45-.95-1.57-1.07-.21-.22-1.19-2.22-1.19-2.41v-95.04l.36-.36h48.6ZM133.81,91.08h-22.8v6.36c0,.88,8.27,8.09,8.63,10.33.23,1.42-.4,2.5.73,3.83,1.2,1.42,3.61,1.48,4.61-.19s.19-2.63.68-4.12c.81-2.46,8.15-8.72,8.15-9.85v-6.36Z"/>
      <path class="cls-4" d="M195.97,66.84h-49.08l-.36-.36v-6.48c0-.79-2.13-2.18-2.99-2.29-2.97-.36-6.17.23-9.11.26-11.2.12-22.4-.13-33.6,0-3.17.49-2.62,6.12-2.31,8.47-.03.11-.29.39-.34.39h-48.48l-.36-.36v-9.12c0-3.81,5.35-8.44,9.23-8.05h128.66c3.05-.31,8.75,4.75,8.75,7.57v9.96Z"/>
      <path class="cls-1" d="M101.01,155.73c.3-.31.84-.59,1.22-.83l43.94-.22c4.14.47,4.26,5.98.25,6.73h-43.45c-2.76-.4-3.9-3.7-1.95-5.68Z"/>
      <path class="cls-5" d="M134.96,138.43c2.14-.03,5.06-.33,7.11-.05,4.28.58,4.46,6.55,0,7.16l-38.62.02c-4.21-.37-4.71-5.82-.7-6.95,10.74.05,21.5-.04,32.22-.18Z"/>
      <path class="cls-6" d="M130.36,176.44c-.44.44-1.57.97-2.19,1.05-7.61-.48-15.73.86-23.28.23-1.48-.12-4.37-.78-4.67-2.53-.6-3.58,1.58-4.43,4.67-4.66,7.71-.6,15.97.73,23.74.25,2.59.69,3.71,3.68,1.73,5.67Z"/>
      <path class="cls-2" d="M143.29,121.16c.31,0,.61.33.84.51,2.16,1.66,9.28,8.76,10.92,10.92.81,1.07.78,1.92-.74,2.15-2.47.37-7.6.44-10.01-.04-1.43-.29-2.18-1.84-2.34-3.18-.22-1.92-.19-6.22,0-8.17.07-.75.35-2.19,1.33-2.19Z"/>
    </g>
    <g>
      <path class="cls-8" d="M54.07,41.22l136.27-.07c7.27,1.1,14.01,7.81,14.52,15.24.46,6.56-.09,13.98-.02,20.66.38,37.74.52,75.67-.1,113.4-1.45,5.26-5.72,9.3-11.12,10.24-47.32.48-94.84.56-142.15-.04-3.92-.74-7.64-3.22-9.63-6.69-2.32-4.02-1.5-6.96-1.62-11.34-1.23-41.96.13-83.99-.25-125.99,1.09-7.49,6.66-13.77,14.1-15.42ZM195.97,66.84v-9.96c0-2.82-5.7-7.89-8.75-7.57H58.55c-3.88-.39-9.23,4.24-9.23,8.05v9.12l.36.36h48.48c.06,0,.31-.28.34-.39-.31-2.36-.86-7.98,2.31-8.47,11.2-.13,22.4.12,33.6,0,2.95-.03,6.15-.61,9.11-.26.86.1,2.99,1.5,2.99,2.29v6.48l.36.36h49.08ZM98.29,75h-48.6l-.36.36v95.04c0,.19.98,2.18,1.19,2.41.12.12,1.47,1.07,1.57,1.07h35.64v-54.36c0-1.16,3.05-4.08,4.44-3.96l53.98.02c1.63.25,2.67,2.17,3.73,3.23,3.83,3.85,7.71,7.66,11.53,11.52v43.56h32.04c.48,0,2.52-2.37,2.52-2.76v-96.12h-49.2c-.26,3.24.9,8.24-3.5,8.86l-41.5.03c-1.16,0-3.47-1.9-3.47-3.01v-5.88ZM143.29,121.16c-.98,0-1.26,1.44-1.33,2.19-.18,1.95-.21,6.25,0,8.17.15,1.35.9,2.9,2.34,3.18,2.41.48,7.54.42,10.01.04,1.52-.23,1.55-1.08.74-2.15-1.64-2.16-8.76-9.26-10.92-10.92-.24-.18-.53-.51-.84-.51ZM134.96,138.43c-10.71.14-21.48.23-32.22.18-4.01,1.13-3.5,6.58.7,6.95l38.62-.02c4.46-.61,4.28-6.57,0-7.16-2.05-.28-4.97.02-7.11.05ZM101.01,155.73c-1.95,1.98-.82,5.27,1.95,5.68h43.45c4.02-.74,3.89-6.25-.25-6.73l-43.94.22c-.38.24-.91.52-1.22.83ZM130.36,176.44c1.98-1.99.86-4.97-1.73-5.67-7.78.48-16.04-.84-23.74-.25-3.09.24-5.27,1.09-4.67,4.66.29,1.75,3.19,2.41,4.67,2.53,7.55.63,15.67-.71,23.28-.23.62-.08,1.76-.61,2.19-1.05Z"/>
      <path class="cls-7" d="M133.81,91.08v6.36c0,1.13-7.33,7.4-8.15,9.85-.49,1.49.29,2.5-.68,4.12s-3.41,1.61-4.61.19c-1.13-1.33-.51-2.41-.73-3.83-.36-2.24-8.63-9.46-8.63-10.33v-6.36h22.8Z"/>
    </g>
  </g>
</svg>