<?xml version="1.0" encoding="UTF-8"?>
<svg id="Layer_2" data-name="Layer 2" xmlns="http://www.w3.org/2000/svg" viewBox="0 0 2679.38 1020.66">
  <defs>
    <style>
      .cls-1 {
        fill: #e13b3a;
      }

      .cls-2 {
        fill: #e33937;
      }

      .cls-3 {
        fill: #e13b3b;
      }

      .cls-4 {
        fill: #e23937;
      }

      .cls-5 {
        fill: #fefdfd;
      }

      .cls-6 {
        fill: #e43936;
      }

      .cls-7 {
        fill: #e23a38;
      }

      .cls-8 {
        fill: #fdfcfd;
      }

      .cls-9 {
        fill: #fefefe;
      }

      .cls-10 {
        fill: #fdfdfd;
      }

      .cls-11 {
        fill: #e43935;
      }
    </style>
  </defs>
  <g id="WideLogo_Image" data-name="WideLogo Image">
    <g>
      <path class="cls-5" d="M2446.81,735.05l-94.38,11.77-44.09-43.75c-1.82-.04-16.2,9.77-19.5,11.51-35.42,18.7-80.88,23.42-120.56,21.52-176.52-8.45-268.48-205.44-179.27-353.35,92.14-152.77,349.12-139.84,422.67,23.95,34.86,77.64,26.63,174.86-32.82,237.89-2.02,2.15-7.76,4.58-6.92,7.77l74.89,82.7ZM2164.82,553.06l97.48-9.98,38.53,40.52c2.61,1.33,6.05-5.56,7.41-7.63,44.4-67.67,12.63-168.08-63.15-196.68-105.16-39.69-203.02,45.61-183.79,154.79,15.04,85.4,100.69,129.83,180.47,97.92.42-1.47-.14-2.33-.9-3.5-4.06-6.22-16.79-15.75-22.58-21.42-18.09-17.72-35.86-35.84-53.47-54.02Z"/>
      <path class="cls-9" d="M1522.82,726.05v-440l160.54-.04c145.93,3.85,236.64,120.93,212.17,264.25-18.04,105.66-109.65,172.55-214.16,175.84l-158.55-.05ZM1624.82,640.05c57.06,2.41,119.48-3.62,150.52-57.98,32.94-57.68,25.48-143.82-30.63-184.41-35.26-25.51-77.75-26.89-119.89-25.61v268Z"/>
      <path class="cls-5" d="M1108.82,418.05c5.77-52.08,32.46-104.23,81.64-126.86,51.88-23.87,139.71-18.67,183.88,19.83,47.52,41.41,55.96,133.27,2.39,173.44l-13.91,8.57c76.84,24.75,87.86,122.33,46.22,182.74-41,59.49-116.19,69.53-183.25,57.8-77.2-13.51-123.01-76.11-130.98-151.52h102c3.38,47.64,40.83,77.13,88.2,65.7,33.56-8.1,49.66-41.14,41.29-73.69-9.48-36.86-46.8-42.14-79.49-41.01v-70c33.4,1.12,64.65-9.49,67.04-47.46,2.46-39.18-31.32-58.88-67.07-51.07-26.51,5.79-38.46,27.86-39.97,53.53h-98Z"/>
    </g>
    <g>
      <path class="cls-11" d="M2678.82,488.05c.75,13.95.75,32.05,0,46-9.96,185.32-165.91,339.13-351.45,347.05l-1434.55-.06c67.18-68.15,116.73-154.96,137.54-248.95,18.23-82.35,16.95-180.5-3.82-262.25-21.84-85.93-68.37-165.39-129.72-228.77l1430.55-.06c185.54,7.91,341.49,161.73,351.45,347.05ZM2446.81,735.05l-74.89-82.7c-.84-3.19,4.9-5.62,6.92-7.77,59.46-63.03,67.69-160.25,32.82-237.89-73.54-163.79-330.53-176.72-422.67-23.95-89.21,147.91,2.75,344.9,179.27,353.35,39.68,1.9,85.14-2.82,120.56-21.52,3.3-1.74,17.68-11.55,19.5-11.51l44.09,43.75,94.38-11.77ZM1108.82,418.05h98c1.52-25.67,13.46-47.74,39.97-53.53,35.75-7.81,69.53,11.88,67.07,51.07-2.39,37.98-33.64,48.58-67.04,47.46v70c32.69-1.13,70.01,4.15,79.49,41.01,8.37,32.55-7.72,65.59-41.29,73.69-47.37,11.43-84.82-18.06-88.2-65.7h-102c7.96,75.41,53.77,138.02,130.98,151.52,67.06,11.73,142.25,1.69,183.25-57.8,41.64-60.41,30.62-157.99-46.22-182.74l13.91-8.57c53.57-40.18,45.14-132.03-2.39-173.44-44.18-38.5-132.01-43.7-183.88-19.83-49.18,22.63-75.87,74.78-81.64,126.86ZM1522.82,726.05l158.55.05c104.51-3.29,196.12-70.18,214.16-175.84,24.48-143.32-66.24-260.4-212.17-264.25l-160.54.04v440Z"/>
      <path class="cls-11" d="M2164.82,553.06c17.61,18.18,35.39,36.3,53.47,54.02,5.79,5.67,18.51,15.2,22.58,21.42.76,1.16,1.33,2.03.9,3.5-79.79,31.9-165.43-12.52-180.47-97.92-19.23-109.17,78.62-194.48,183.79-154.79,75.78,28.6,107.55,129.01,63.15,196.68-1.36,2.08-4.8,8.97-7.41,7.63l-38.53-40.52-97.48,9.98Z"/>
      <path class="cls-11" d="M1624.82,640.05v-268c42.14-1.28,84.63.1,119.89,25.61,56.1,40.59,63.56,126.73,30.63,184.41-31.04,54.36-93.46,60.39-150.52,57.98Z"/>
    </g>
    <g>
      <path class="cls-11" d="M489.61.35c193.44-6.87,372.05,88.71,467.38,257.03,158.36,279.63,20,634.52-281.65,736.69-279.24,94.58-587.47-72.19-659.23-356.8C-63.76,320.56,162.76,11.95,489.61.35ZM229.61,171.35c-34.8,5.18-61.09,35.48-63.78,70.22.8,183.21-1.66,366.67,1.24,549.73,5.29,23.84,23.61,41.6,47.48,46.52,197.94,2.05,396.56,2.08,594.51-.02,25.22-4.94,45.57-27.33,46.8-53.2V237.51c-3.59-33.49-30.97-62.18-64.51-66.5l-561.74.33Z"/>
      <path class="cls-6" d="M673.82,726.05v-180.5c-17.37-21.7-38.92-39.8-57.98-60.02l-6.59-3.41-221.93-.06c-9.13-.26-21.51,10.41-21.51,19.49v224.5h-147.5c-4.53,0-12.5-9.28-12.5-13.5v-399l1.5-1.5h201c.54,0,2.56,2.51,2.52,3.56l-.82,16.94c1.04,10.13,4.79,16.1,15.41,17.39l170.88.1c3.23-.32,8.66-1.76,11.03-3.97,1.11-1.03,4.48-7.5,4.48-8.52v-24l1.5-1.5h203l1.5,1.5v400c0,2.76-8.34,12.5-11.5,12.5h-132.5ZM558.82,380.05h-96v25.5c0,5.02,35.44,35.62,36.91,46.09.67,4.79-1.15,8.88,1.64,13.36,4.77,7.66,19.32,6.87,21.22-2.68.7-3.52-.15-7.15.32-10.68,1.42-10.56,26.06-31.03,32.92-41.08.7-1.02,2.99-5.27,2.99-6.01v-24.5Z"/>
      <path class="cls-2" d="M205.82,240.55c1.95-18.47,17.87-33.7,36.46-34.54l541.05.04c14.66.97,34.49,19.84,34.49,34.51v37l-1.5,1.5h-203l-1.5-1.5v-25c0-3.6-6.22-10.14-9.97-11.03l-178.53-.47c-4.99-.32-12.5,5.64-12.5,10.5v26l-1.5,1.5h-202l-1.5-1.5c.91-11.84-1.23-25.39,0-37Z"/>
      <path class="cls-4" d="M420.14,651.37c2.13-2.56,7.61-5.62,11.14-5.35l179.04.04c17.75,3.3,16.46,26.89-2.01,27.99l-182.04-.94c-8.51-2.41-11.38-15.44-6.13-21.73Z"/>
      <path class="cls-3" d="M428.55,578.28l164.77-.23c14.72,2.65,18.64,21.38,4.22,28.22l-168.24.8c-16.04-3.26-15.66-23.9-.75-28.79Z"/>
      <path class="cls-1" d="M428.54,713.28l108.73-.18c16.06,6.28,13.3,26.19-3.97,27.94-32.17-2.41-69.27,3.33-100.86-.11-17.93-1.95-20.63-22.03-3.9-27.65Z"/>
      <path class="cls-7" d="M609.47,515.4c10.21,9.66,23.67,22.33,32.86,32.64,2.4,2.69,9.22,9.41,6.25,12.76-1.53,1.13-3.41,1.16-5.22,1.29-10.21.75-31.23,1.14-41.06-.02-5.34-.63-8.87-5.24-9.5-10.5-.67-5.52-.8-37.44.47-41.57,2.8-9.12,12.32,1.73,16.2,5.4Z"/>
    </g>
    <g>
      <path class="cls-10" d="M229.61,171.35l561.74-.33c33.55,4.31,60.93,33.01,64.5,66.5v547.09c-1.22,25.87-21.57,48.26-46.79,53.2-197.95,2.1-396.57,2.07-594.51.02-23.87-4.92-42.2-22.67-47.48-46.52-2.9-183.06-.45-366.52-1.24-549.73,2.7-34.74,28.98-65.04,63.78-70.22ZM205.82,240.55c-1.23,11.61.91,25.16,0,37l1.5,1.5h202l1.5-1.5v-26c0-4.86,7.51-10.82,12.5-10.5l178.53.47c3.75.89,9.97,7.43,9.97,11.03v25l1.5,1.5h203l1.5-1.5v-37c0-14.67-19.84-33.53-34.49-34.51l-541.05-.04c-18.58.84-34.5,16.08-36.46,34.54ZM673.82,726.05h132.5c3.16,0,11.5-9.74,11.5-12.5v-400l-1.5-1.5h-203l-1.5,1.5v24c0,1.02-3.37,7.49-4.48,8.52-2.37,2.2-7.81,3.64-11.03,3.97l-170.88-.1c-10.62-1.29-14.37-7.26-15.41-17.39l.82-16.94c.04-1.04-1.98-3.56-2.52-3.56h-201l-1.5,1.5v399c0,4.22,7.97,13.5,12.5,13.5h147.5v-224.5c0-9.08,12.38-19.75,21.51-19.49l221.93.06,6.59,3.41c19.06,20.23,40.6,38.33,57.98,60.02v180.5ZM609.47,515.4c-3.88-3.67-13.4-14.52-16.2-5.4-1.27,4.14-1.14,36.05-.47,41.57.63,5.26,4.16,9.87,9.5,10.5,9.84,1.16,30.85.77,41.06.02,1.81-.13,3.69-.16,5.22-1.29,2.97-3.35-3.86-10.07-6.25-12.76-9.19-10.31-22.65-22.98-32.86-32.64ZM428.55,578.28c-14.91,4.89-15.29,25.53.75,28.79l168.24-.8c14.41-6.84,10.5-25.57-4.22-28.22l-164.77.23ZM420.14,651.37c-5.25,6.3-2.38,19.33,6.13,21.73l182.04.94c18.47-1.1,19.76-24.69,2.01-27.99l-179.04-.04c-3.53-.27-9.01,2.79-11.14,5.35ZM428.54,713.28c-16.73,5.62-14.03,25.7,3.9,27.65,31.59,3.44,68.69-2.3,100.86.11,17.26-1.75,20.03-21.66,3.97-27.94l-108.73.18Z"/>
      <path class="cls-8" d="M558.82,380.05v24.5c0,.75-2.29,4.99-2.99,6.01-6.86,10.04-31.51,30.52-32.92,41.08-.47,3.53.38,7.16-.32,10.68-1.9,9.55-16.45,10.35-21.22,2.68-2.79-4.48-.97-8.57-1.64-13.36-1.47-10.47-36.91-41.07-36.91-46.09v-25.5h96Z"/>
    </g>
  </g>
</svg>